<svg width="980" height="160" viewBox="0 0 980 160" fill="none" xmlns="http://www.w3.org/2000/svg">
<path fill-rule="evenodd" clip-rule="evenodd" d="M43.5876 82.6982C47.359 98.6031 60.8689 121.596 102.46 124.818C161.7 124.42 170.6 90.1031 170.6 69.5926C170.6 40.2204 159.991 35.2643 136.212 35.2643C69.5738 36.9372 49.4698 32.6775 29.3673 28.4181C26.3063 27.7695 23.2453 27.1209 20.02 26.4933C20.02 26.4933 20.5741 41.5628 29.6706 57.2763C38.4678 72.4741 54.3281 80.2686 61.5324 83.8091C63.874 84.9599 65.3012 85.6612 65.2742 86.0214C65.2165 86.7841 62.3717 86.386 62.3429 86.3818C51.7202 84.915 43.5876 82.6982 43.5876 82.6982ZM199.816 60.6051C204.814 62.1864 208.855 64.6519 208.855 68.4961C208.855 72.3138 204.867 74.979 199.916 76.8187L199.914 76.8201C198.382 77.3886 196.761 77.8775 195.134 78.2994C194.527 78.6514 193.944 79.0803 193.451 79.6153C192.318 80.8487 191.668 82.4509 191.302 83.7486C188.788 99.3448 181.516 112.341 171.376 123.346C155.175 140.926 91.8433 166.012 45.2444 126.048C23.7475 107.61 19.7836 84.8187 20.7337 74.37L20.7543 74.1409C-3.98878 54.3918 0.186858 15.4733 0.380722 13.797L1.98113 0L14.8683 4.64463C14.9893 4.68793 28.1253 9.35073 42.8067 10.9697C57.9446 12.6404 64.3339 13.0106 66.6877 13.0888H136.212C176.243 13.0888 188.227 32.5809 191.396 53.8861C191.777 55.1223 192.408 56.5695 193.451 57.7052C194.355 58.69 195.559 59.3298 196.684 59.7474C197.517 59.9444 198.341 60.1609 199.144 60.3998C199.618 60.478 199.916 60.5017 199.916 60.5017L199.816 60.6051ZM138.892 58.1634C138.892 51.943 142.523 48.5696 147.918 48.5696C153.833 48.5696 157.05 51.8383 157.05 58.0586C157.05 63.7509 153.212 67.2305 147.918 67.2305C142.523 67.2305 138.892 63.9618 138.892 58.1634ZM754.586 106.79C751.429 106.79 748.127 106.345 746.116 105.751V70.5972C748.844 66.8878 752.721 63.7731 759.323 63.7731C768.51 63.7731 773.675 70.3005 773.675 83.7975C773.675 98.3341 768.076 106.79 754.586 106.79ZM765.925 44.9353C755.017 44.9353 748.556 50.7197 745.975 56.8022H744.824C745.83 50.7197 746.404 41.5226 746.404 34.9966V11.1145C737.218 11.1145 730.472 12.5977 725.591 15.4158V119.101C733.198 122.514 743.82 124.739 754.01 124.739C779.991 124.739 795.062 110.053 795.062 81.8693C795.062 54.4277 780.71 44.9353 765.925 44.9353ZM946.07 64.4967C952.711 64.4967 956.61 67.5768 959.356 71.245V106.009C957.333 106.596 954.011 107.036 950.834 107.036C937.265 107.036 931.633 98.6742 931.633 84.2989C931.633 70.9517 936.83 64.4967 946.07 64.4967ZM959.065 36.0394C959.065 42.493 959.643 51.5881 960.655 57.6031H959.497C956.9 51.5881 950.402 45.8679 939.429 45.8679C924.558 45.8679 910.121 55.2549 910.121 82.3921C910.121 110.263 925.28 124.786 951.414 124.786C961.664 124.786 972.35 122.586 980 119.211V16.6758C975.092 13.8891 968.305 12.4223 959.065 12.4223V36.0394ZM896.331 44.0975C894.652 43.1969 892.413 42.7466 889.753 42.7466C878.279 42.7466 873.804 49.8015 871.844 58.0587H870.724L869.324 44.2476C862.607 44.2476 856.731 45.4485 852.954 47.7V119.307C854.912 120.358 858.271 121.108 863.169 121.108C868.065 121.108 871.424 120.358 873.244 119.307V77.425C875.901 69.6181 881.218 64.3631 888.354 64.3631C892.691 64.3631 895.352 65.2637 898.009 66.9148C898.709 64.8134 899.269 62.1115 899.269 57.7585C899.269 52.0545 898.291 47.8501 896.331 44.0975ZM814.36 48.1426C816.222 47.1128 819.418 46.3773 824.075 46.3773C828.731 46.3773 831.928 47.1128 833.658 48.1426V119.056C831.928 120.085 828.731 120.821 824.075 120.821C819.418 120.821 816.222 120.085 814.36 119.056V48.1426ZM697.266 47.6279C692.213 47.6279 688.749 48.3612 686.87 49.3879V96.3273C684.128 101.022 679.941 104.982 672.144 104.982C663.482 104.982 660.739 99.9942 660.739 92.2219V49.3879C658.718 48.3612 655.251 47.6279 650.199 47.6279C645.146 47.6279 641.68 48.3612 639.803 49.3879V96.034C639.803 120.239 652.942 124.198 664.203 124.198C677.487 124.198 683.041 120.021 686.219 112.686H687.174C687.181 115.901 687.189 118.385 687.194 120.328V120.344C687.21 125.848 687.213 127.004 687.17 128.157C687.159 128.466 687.144 128.774 687.125 129.165L687.125 129.172C686.656 138.931 679.216 143.394 665.699 143.394C656.834 143.394 649.077 141.423 644.09 139.171C643.675 144.518 645.89 151.415 649.077 155.075C653.648 157.748 661.404 160 670.964 160C692.15 160 707.751 148.269 707.751 130.084C707.751 126.708 707.762 109.874 707.771 94.7106L707.78 79.5745L707.789 79.5634V68.894V68.8549V49.3879C705.767 48.3612 702.32 47.6279 697.266 47.6279ZM592.871 62.1076C603.514 62.1076 606.323 69.5351 605.141 77.1097H577.497C578.088 67.9331 583.709 62.1076 592.871 62.1076ZM601.001 107.551C586.367 107.551 578.977 102.599 578.089 92.4031H623.024C624.356 88.6165 625.243 83.3735 625.243 78.7117C625.243 59.4847 615.338 46.3773 593.759 46.3773C570.551 46.3773 555.771 62.1076 555.771 86.4319C555.771 110.027 569.518 124.739 595.384 124.739C605.584 124.739 613.861 122.407 618.738 119.64C622.139 115.854 624.504 108.716 624.062 103.182C618.738 105.513 610.46 107.551 601.001 107.551ZM495.137 122.938C493.307 123.988 489.929 124.739 485 124.739C480.072 124.739 476.694 123.988 474.722 122.938V51.3307C478.524 49.0792 484.578 47.8783 491.336 47.8783L492.463 60.1869H493.589C496.968 52.3815 504.148 46.3773 516.962 46.3773C527.662 46.3773 540.334 50.4301 540.334 75.2002V122.938C538.503 123.988 535.126 124.739 530.197 124.739C525.268 124.739 521.891 123.988 519.919 122.938V79.1029C519.919 71.2961 517.383 66.3426 509.077 66.3426C501.755 66.3426 497.672 70.2453 495.137 74.9V122.938ZM437.343 84.5373C437.343 98.9582 432.778 107.405 422.617 107.405C412.899 107.405 407.893 98.9582 407.893 84.5373C407.893 71.7197 412.752 63.7096 422.617 63.7096C432.04 63.7096 437.343 71.7197 437.343 84.5373ZM422.617 124.739C445.294 124.739 459.283 110.609 459.283 84.3916C459.283 59.6304 444.853 46.3773 422.617 46.3773C400.825 46.3773 385.952 60.5056 385.952 84.3916C385.952 111.339 398.909 124.739 422.617 124.739ZM279.638 122.938C277.75 123.988 274.268 124.739 269.186 124.739C264.104 124.739 260.622 123.988 258.588 122.938V51.3307C262.509 49.0792 268.752 47.8783 275.718 47.8783L276.882 60.1869H278.042C281.379 52.8318 288.494 46.3773 301.56 46.3773C310.124 46.3773 318.689 48.9291 322.61 59.4378H323.77C326.82 52.3815 333.931 46.3773 346.854 46.3773C357.741 46.3773 370.514 50.4301 370.514 75.2002V122.938C368.627 123.988 365.143 124.739 360.062 124.739C354.981 124.739 351.497 123.988 349.464 122.938V79.1029C349.464 71.2961 346.996 66.3426 338.724 66.3426C331.463 66.3426 327.254 70.2453 324.786 74.9C324.931 76.2509 325.078 79.4031 325.078 82.5553V122.938C323.191 123.988 319.851 124.739 314.769 124.739C309.69 124.739 306.35 123.988 304.316 122.938V79.1029C304.316 71.2961 301.849 66.3426 293.576 66.3426C286.172 66.3426 282.106 70.2453 279.638 74.9V122.938Z" fill="#0073E6"/>
</svg>
